<?xml version="1.0" encoding="utf-8"?>
<!-- Generator: Adobe Illustrator 22.1.0, SVG Export Plug-In . SVG Version: 6.00 Build 0)  -->
<svg version="1.1" id="Layer_1" xmlns="http://www.w3.org/2000/svg" xmlns:xlink="http://www.w3.org/1999/xlink" x="0px" y="0px"
	 viewBox="0 0 1902.5 539.2" style="enable-background:new 0 0 1902.5 539.2;" xml:space="preserve">
<style type="text/css">
	.st0{fill:#BD1622;}
	.st1{fill:#1D1D1B;}
</style>
<g>
	<path class="st0" d="M256.9,0.2c63.3,3.4,100.7,15.9,133.8,82.9c19.6,39.8,42.7,78.8,64.8,117.9c19.1,33.7,59.8,48.7,95.8,36.2
		c24.4-8.5,14.3-22.6,6.8-36.2C528.5,147,498.4,93.2,469,39.2c-5.5-10.2-20.7-22.9-4.7-32.8c15.5-9.6,25.9,5.3,32.9,17.8
		C533.7,88.9,569.7,154,606,219c10.6,18.9,7.5,36.8-2.2,54.8c-41,75.5-82.5,150.8-122.4,226.9c-13.1,25-31.1,34-58.7,33.5
		c-34.5-0.6-69.2,1.8-103.6,4.6c-33.2,2.7-55.2-8.3-71-39.5c-28.5-56-60.6-110.1-91.8-164.7c-17.1-30-62.6-44.6-93.4-31.1
		c-22.4,9.8-8.6,22.7-2.4,34.1c29.6,54,60.1,107.5,89.2,161.7c5.8,10.8,21.8,25.5,2.2,35.8c-15.7,8.3-26.1-6.4-33-18.8
		c-38.3-68.2-76.1-136.8-114-205.2c-8.4-15.2-4.9-29,3-43.6c42.8-78.9,85.5-158,127.3-237.4C146,9.7,160.4-0.9,183.9,0.1
		C204.4,0.8,224.9,0.2,256.9,0.2 M299.4,516.6c47.5-90.7,89.6-171.4,132-251.9c7.2-13.6,7.3-26.2-0.5-40
		c-32.8-58.1-65.4-116.3-97.2-174.9c-11.3-20.8-19-20.8-30,0.1c-37.5,71.6-75.9,142.7-113.9,214.1c-6.7,12.6-13.9,25.5-6.1,39.9
		C220.7,372.3,258,440.5,299.4,516.6"/>
	<path class="st1" d="M685.7,187.5v-5c4.4-2.6,7.6-4.5,9.4-5.8c0.9-11.3,1.3-32.4,1.3-63.3c0-13.4-0.1-24.6-0.4-33.6
		c-0.3-9-0.7-14.1-1.3-15.4c-0.3-0.6-0.7-1.1-1.2-1.4c-1-0.5-5.7-1.3-14.1-2.3v-8.1c9.7,0.3,20.8,0.5,33.4,0.5l47.4-0.5
		c17.2,0,30.3,2.2,39.3,6.5c8.9,4.3,16,11,21.3,20c5.3,9,7.9,19.9,7.9,32.7c0,16.5-4.1,30.7-12.3,42.6c-8.2,11.9-18.2,20.4-30,25.5
		c-11.8,5.1-24.4,7.6-37.8,7.6l-36.4-0.7C706.2,186.8,697.4,187,685.7,187.5 M724.6,175.5c5.4,1,10.9,1.4,16.5,1.4
		c14.3,0,25.2-2.1,32.7-6.1c7.5-4.1,13.6-10.8,18.2-20.1c4.6-9.3,7-20.8,7-34.3c0-17.9-4.6-31.5-13.8-40.8
		c-8.1-8.3-21.4-12.5-39.9-12.5c-4,0-10.9,0.3-20.7,1l-0.8,59.9C723.9,149.1,724.1,166.3,724.6,175.5"/>
	<path class="st1" d="M843,187.5v-8.1c8.8-0.4,13.8-1.2,14.9-2.2c1.1-1,1.8-3.6,2.1-7.6c0.5-8.5,0.8-24.2,0.8-47.3
		c0-8.9-0.1-21.7-0.4-38.5c-0.1-11.5-0.4-17.8-0.8-18.9c-0.4-1.1-1.1-1.9-2-2.5c-1.4-0.7-6.3-1.3-14.6-1.8v-8.1
		c13.2,0.4,23.3,0.7,30.3,0.7c12.1,0,23-0.2,32.7-0.7v8.1c-8.8,0.5-13.7,1.2-14.8,2.1c-1.1,0.9-1.9,2.9-2.2,6
		c-0.5,6.2-0.8,18.6-0.8,37.4c0,25,0.1,42.4,0.3,52.3c0.2,9.8,0.8,15.7,1.7,17.5c0.4,0.8,1.2,1.5,2.5,2c1.2,0.5,5.7,1,13.3,1.5v8.1
		l-11.3-0.3c-7.2-0.3-13.6-0.4-19.2-0.4L843,187.5z"/>
	<path class="st1" d="M919.3,187.5v-8.1c7.8-0.3,12.4-0.8,13.7-1.5c0.9-0.5,1.6-1.3,2-2.5c0.7-1.5,1.1-7,1.3-16.3
		c0.3-15.4,0.5-27,0.5-34.8l-0.2-40.7c0-10.8-0.4-17-1-18.7c-0.4-0.9-1-1.7-1.8-2.1c-1.3-0.8-6.1-1.5-14.5-2.2v-8.1
		c10,0.3,17.4,0.5,22.3,0.5c5.3,0,11.4-0.2,18.2-0.5c14.8,18.9,31.5,39.4,50.2,61.5c12.4,14.8,23.1,27,32.1,36.6v-38.2
		c0-14.5-0.2-26.9-0.5-37.4c-0.3-6.2-0.8-10-1.5-11.5c-0.4-0.8-1.1-1.3-2.1-1.6c-1-0.3-5.5-0.8-13.5-1.4v-8.1
		c7,0.3,13.9,0.5,20.8,0.5c9.5,0,18-0.2,25.7-0.5v8.1c-7.1,0.5-11.4,1-12.9,1.5c-0.8,0.3-1.5,0.8-2,1.3c-0.5,0.6-0.9,1.3-1.1,2.2
		c-0.4,1.5-0.7,6.5-0.8,14.8l-0.4,38.4l-0.2,38.7c0,10.4,0.2,20.8,0.7,31.2l-1.3,1.3c-7.8-1.4-13.3-2.3-16.5-2.8
		c-16.5-18.3-36.4-41.2-59.7-68.8c-11.8-14-21.3-25.7-28.6-35.3v37.4c0,10.2,0.2,22.5,0.5,36.8c0.2,10.6,0.6,16.6,1.3,18.3
		c0.3,0.7,0.7,1.3,1.4,1.6c1.2,0.7,5.8,1.3,13.8,1.9v8.1c-10.3-0.5-17.7-0.7-22.2-0.7C939.4,186.8,931.5,187,919.3,187.5"/>
	<path class="st1" d="M1109.6,187.5v-8.1c3.7,0,7.5-0.3,11.4-1c1.9-0.3,3.2-0.8,3.9-1.6c0.8-0.8,1.3-2.1,1.7-4.1
		c0.5-2.8,0.8-12.9,1.2-30.4c0.2-12.4,0.3-25.1,0.3-38c0-25.4-0.1-38.4-0.2-38.9c-0.2-0.5-2.4-0.7-6.8-0.7c-8.9,0-16.6,0.2-23,0.8
		c-3.7,0.3-5.8,0.6-6.3,0.9c-0.5,0.3-0.9,0.9-1.1,1.7c-0.3,0.8-0.8,6.4-1.6,16.9h-8.3c0.1-12.3-0.2-22.9-1-31.7l1.1-0.8
		c20.2,0.9,39.8,1.4,58.9,1.4c19,0,40.3-0.5,63.9-1.4l1,1.5c-1.2,8.8-2.1,19.1-2.6,30.9h-8c-0.6-10.8-1.2-16.6-1.7-17.6
		c-0.5-0.7-1.5-1.2-3.1-1.5c-5.1-0.8-15.3-1.3-30.6-1.3c-1.3,0-2.1,0.2-2.3,0.6c-0.3,0.4-0.4,2.1-0.4,5.1l-0.6,64.6
		c0,18.7,0.2,30.2,0.5,34.5c0.3,4.3,1.1,6.8,2.3,7.7c0.8,0.6,5.9,1.3,15.2,2v8.1c-9.4-0.5-19.5-0.7-30-0.7
		C1129.6,186.8,1118.3,187,1109.6,187.5"/>
	<path class="st1" d="M1221.3,187.5v-5.2c3.4-1.5,6.5-3.3,9.3-5.4c1.3-10,1.9-31,1.9-63.1c0-21.8-0.2-36.3-0.7-43.5
		c-0.2-3.8-0.8-6.2-2-7.2c-1.1-1-5.9-1.9-14.3-2.6v-8.1c15.1,0.6,27.1,0.9,35.8,0.9l52.9-0.9c5.6,0,10.6,0.2,15.1,0.7l0.7,1.1
		c-1.4,7-2.4,16.4-3.1,28.1h-7.6c-0.3-9.4-0.7-14.4-1.1-15c-0.4-0.6-1.9-1.3-4.4-1.8c-5.3-1.1-13.5-1.7-24.4-1.7
		c-5.4,0-11.7,0.2-18.8,0.7c-0.8,19.8-1.3,35.6-1.4,47.3c6.9,0.5,13.3,0.7,19.3,0.7c8.9,0,14.3-0.3,16.1-0.9
		c1.1-0.4,1.9-1.3,2.3-2.8c0.4-1.1,0.8-5.2,1.3-12.1h8.3c-0.3,10.8-0.5,17.9-0.5,21.2l0.5,21.7h-8.3c-0.4-8.5-1-13.3-1.7-14.6
		c-0.4-0.8-1.3-1.3-2.6-1.6c-3.2-0.7-10.4-1.1-21.6-1.1c-3.5,0-7.7,0.2-12.4,0.7c-0.1,3.4-0.2,6.8-0.2,10.4c0,18.3,0.3,32.3,1,42.1
		l19.1,0.3c10.9,0,20.8-0.6,29.8-1.7c1.6-5.9,3.1-12.7,4.6-20.2h8c-1.5,11.4-2.3,22.4-2.6,32.9c-5.8,0.5-11.4,0.7-16.8,0.7
		c-3.5,0-10.5-0.1-20.9-0.4c-9.7-0.2-18.6-0.3-26.7-0.3C1244.4,186.8,1233.1,187,1221.3,187.5"/>
	<path class="st1" d="M1335.2,187.5v-8.1c7.4-0.6,11.7-1.3,12.8-1.8c0.7-0.4,1.2-1,1.5-1.8c0.6-1.5,1.1-6.7,1.3-15.6
		c0.3-13.7,0.5-24.5,0.5-32.4c0-10.6-0.1-24.2-0.4-40.6c-0.3-12.2-0.9-19.7-1.8-22.5c-0.3-0.8-0.8-1.5-1.5-1.9
		c-1-0.6-5.2-1.3-12.4-2.1v-8.1c13.3,0.4,21.8,0.7,25.7,0.7l48.2-0.7c10.4,0,18.1,1,22.8,3c4.8,2,8.6,5.2,11.3,9.7
		c2.8,4.4,4.2,9.7,4.2,15.7c0,7.7-2.2,14.4-6.7,20.2c-4.5,5.8-12.2,10.9-23.2,15.4l20.5,30.8l16,23.7c3,3.8,5.3,6.2,6.7,7
		c1.5,0.8,3.9,1.2,7.2,1.3v7.4l-5.7,0.1c-16.3,0.1-26.8,0.3-31.4,0.6c-5.6-8.9-13.9-21.8-25-38.7l-19.8-30.1
		c0.6-1.1,1.1-2.3,1.4-3.5c2.6,0.3,4.4,0.5,5.7,0.5c6,0,11.8-2.4,17.6-7.2c5.8-4.8,8.7-11.7,8.7-20.6c0-7.7-2.3-13.8-6.8-18.1
		c-4.6-4.3-11.4-6.4-20.5-6.4c-2.9,0-6.8,0.2-11.8,0.7l-0.6,28.4l-0.8,36c0,8.1,0.3,18.6,1,31.3c0.5,9.6,1,14.9,1.5,16.1
		c0.4,0.8,1.1,1.5,2.1,2c1.3,0.8,5.7,1.3,13,1.7v8.1c-11.5-0.5-21.7-0.7-30.6-0.7C1356.2,186.8,1346.1,187,1335.2,187.5"/>
	<path class="st1" d="M1477.1,187.5v-8.1c7.8-0.3,12.4-0.8,13.7-1.5c0.9-0.5,1.6-1.3,2-2.5c0.7-1.5,1.1-7,1.3-16.3
		c0.3-15.4,0.5-27,0.5-34.8l-0.2-40.7c0-10.8-0.4-17-1-18.7c-0.4-0.9-1-1.7-1.8-2.1c-1.3-0.8-6.1-1.5-14.5-2.2v-8.1
		c10,0.3,17.4,0.5,22.3,0.5c5.3,0,11.4-0.2,18.2-0.5c14.8,18.9,31.5,39.4,50.2,61.5c12.4,14.8,23.1,27,32.1,36.6v-38.2
		c0-14.5-0.2-26.9-0.5-37.4c-0.3-6.2-0.8-10-1.5-11.5c-0.4-0.8-1.1-1.3-2.1-1.6c-1-0.3-5.5-0.8-13.5-1.4v-8.1
		c7,0.3,13.9,0.5,20.8,0.5c9.5,0,18-0.2,25.7-0.5v8.1c-7.1,0.5-11.4,1-12.9,1.5c-0.8,0.3-1.5,0.8-2,1.3c-0.5,0.6-0.9,1.3-1.1,2.2
		c-0.4,1.5-0.7,6.5-0.8,14.8l-0.4,38.4l-0.2,38.7c0,10.4,0.2,20.8,0.7,31.2l-1.3,1.3c-7.8-1.4-13.3-2.3-16.5-2.8
		c-16.5-18.3-36.4-41.2-59.7-68.8c-11.8-14-21.3-25.7-28.6-35.3v37.4c0,10.2,0.2,22.5,0.5,36.8c0.2,10.6,0.6,16.6,1.3,18.3
		c0.3,0.7,0.7,1.3,1.4,1.6c1.2,0.7,5.8,1.3,13.8,1.9v8.1c-10.3-0.5-17.7-0.7-22.2-0.7C1497.2,186.8,1489.3,187,1477.1,187.5"/>
	<path class="st1" d="M1640.5,178.7c6-0.3,9.7-0.9,11.1-1.8c1-0.6,2.5-3.1,4.5-7.3c3.9-8.3,8.9-19.9,15-34.7l34-83.3h14.1
		l43.5,103.2c5.6,13,9.1,20.2,10.4,21.4c1.3,1.3,5.4,2.1,12.2,2.5v8.8c-10.4-0.5-20.3-0.7-29.6-0.7c-11.1,0-21.6,0.2-31.6,0.7v-8.8
		c7.6-0.3,12-0.7,13.2-1.3c1.2-0.5,1.8-1.5,1.8-2.9c0-1.2-1.3-5.3-4-12.2l-6.3-16.1c-8-0.2-16.8-0.3-26.7-0.3
		c-8.5,0-16.3,0.1-23.3,0.3l-4.2,10.8c-1.1,3-2.6,7.3-4.2,13.2c-0.4,1.3-0.6,2.5-0.6,3.6c0,1.5,0.6,2.5,1.9,3.1
		c1.2,0.6,5.7,1.2,13.5,1.8v8.8c-6.3-0.5-14.1-0.7-23.4-0.7c-8.9,0-16,0.2-21.2,0.7V178.7z M1703.6,85.4l-20.3,49.4
		c5.9,0.3,12.4,0.5,19.5,0.5c7.4,0,14.6-0.2,21.4-0.5L1703.6,85.4z"/>
	<path class="st1" d="M1800.7,187.5v-5c3.5-1.7,6.9-3.6,10-5.9c0.8-17.4,1.2-35.5,1.2-54.3c0-14.8-0.2-28.8-0.5-41.9
		c-0.2-9.4-0.6-14.7-1.3-16.1c-0.3-0.8-1-1.5-2-1.9c-1-0.4-5.7-1-14-1.7v-8.1c12.4,0.3,23.8,0.5,34.4,0.5c10.3,0,20-0.2,29.1-0.5
		v8.1c-8.8,0.6-13.9,1.3-15.2,2.3c-0.8,0.6-1.4,1.7-1.8,3.5c-0.4,1.8-0.6,12.1-0.8,31.1l-0.6,46.8c0,8.8,0.2,18.9,0.7,30.5
		c8.4,0.5,14.6,0.7,18.6,0.7c12.1,0,22.2-1,30.5-2.9c1.7-5.8,3.4-12.7,5-20.7h8.5c-1.4,9.3-2.7,21-3.9,34.8
		c-6.1,0.5-11.7,0.7-16.8,0.7l-34.8-0.5l-15.6-0.2C1824.3,186.7,1814.1,186.9,1800.7,187.5"/>
	<path class="st0" d="M676.1,521.3v-7.1c4.7-2.1,9-4.6,12.8-7.4c1.8-13.8,2.6-42.7,2.6-86.7c0-30-0.3-50-0.9-59.7
		c-0.3-5.2-1.2-8.5-2.7-9.8c-1.5-1.4-8.1-2.5-19.6-3.5v-11.1c20.8,0.8,37.2,1.2,49.3,1.2l72.8-1.2c7.7,0,14.6,0.3,20.7,1l0.9,1.5
		c-1.9,9.7-3.4,22.6-4.2,38.7h-10.4c-0.4-12.9-1-19.7-1.5-20.6c-0.6-0.9-2.6-1.7-6-2.5c-7.3-1.6-18.5-2.4-33.6-2.4
		c-7.4,0-16,0.3-25.9,0.9c-1.1,27.2-1.8,48.9-2,65c9.4,0.6,18.3,0.9,26.6,0.9c12.3,0,19.6-0.4,22.1-1.2c1.5-0.5,2.6-1.8,3.2-3.8
		c0.5-1.6,1.1-7.2,1.9-16.7h11.4c-0.4,14.9-0.7,24.6-0.7,29.1l0.7,29.8H782c-0.6-11.6-1.4-18.3-2.4-20.1c-0.5-1.1-1.7-1.8-3.6-2.3
		c-4.4-1-14.3-1.5-29.7-1.5c-4.8,0-10.5,0.3-17.1,0.9c-0.2,4.7-0.3,9.4-0.3,14.2c0,25.1,0.4,44.4,1.3,58l26.2,0.4
		c14.9,0,28.6-0.8,40.9-2.4c2.2-8.1,4.3-17.4,6.3-27.8h11c-2,15.7-3.2,30.8-3.6,45.2c-8,0.6-15.7,0.9-23.1,0.9
		c-4.9,0-14.4-0.2-28.7-0.5c-13.3-0.3-25.6-0.5-36.8-0.5C707.9,520.4,692.4,520.7,676.1,521.3"/>
	<path class="st0" d="M930.7,398.4v-22.8c0-14.2-0.3-22.4-0.9-24.7c-0.4-1.7-1.3-2.8-2.6-3.5c-1.3-0.7-7.2-1.1-17.8-1.4v-9.5
		c21-2.3,38.6-6.5,52.8-12.7l3.4,3.2c-0.8,14.2-1.3,27.6-1.5,40.4l-0.9,103.8c0,17.4,0.3,28,0.9,31.8c0.3,2.4,1.2,4,2.6,4.9
		c1.4,0.9,6.8,1.8,16.2,2.6v10.8c-10.8-0.5-21.3-0.8-31.5-0.8c-7.4,0-14.4,0.3-20.8,0.8l-2.3-1.6c1.1-8.9,1.9-16.1,2.4-21.5
		c-6,4.5-15.6,12.2-28.7,23.1c-5,1.9-9.7,2.8-14.2,2.8c-14.6,0-26.8-5.5-36.5-16.3c-9.7-10.9-14.6-25.4-14.6-43.5c0-8.8,1-16.8,3-24
		c2-7.2,4.3-12.6,7-16.2c2.7-3.6,8.1-8.2,16.2-13.9c11-7.7,19.1-12.5,24.1-14.5c5.1-2,10.6-3,16.6-3c4.3,0,8.7,0.5,13.2,1.4
		C921.3,395,925.9,396.4,930.7,398.4 M930.7,426.7c-4.1-5.9-8.9-10.3-14.1-13.2c-5.3-2.9-11.1-4.4-17.6-4.4c-9.1,0-16,3.2-20.9,9.7
		c-4.8,6.5-7.3,17.4-7.3,32.6c0,15.7,3,27.4,8.9,35.2c6,7.8,13.5,11.6,22.8,11.6c6.2,0,12-1.8,17.4-5.4c5.3-3.6,8.5-6.9,9.4-9.9
		c0.9-3,1.4-14.4,1.4-34.2V426.7z"/>
	<path class="st0" d="M993.7,414.1v-10.2c14.1-1.3,27.3-3.8,39.5-7.5l13.1-4.6c1.6,0,2.4,1,2.4,3l-0.5,7.8
		c-1.5,20.3-2.2,39.9-2.2,58.8c0,12.2,0.6,20.3,1.8,24.3c1.2,4,3.5,7.1,6.7,9.3c3.2,2.2,7.5,3.3,12.9,3.3c6.2,0,11.7-1.7,16.4-5.1
		c4.7-3.4,7.6-7.2,8.7-11.4c1.1-4.2,1.6-16,1.6-35.5c0-15.6-0.3-24.8-0.8-27.4c-0.4-1.4-1-2.4-1.9-2.9c-1.3-0.7-7.3-1.3-18-1.9
		v-10.2c18-2,31.3-4.4,39.7-7.2l14-5c1.5,0,2.2,0.9,2.2,2.8l-0.3,3.6c-1.4,15.4-2.1,43.2-2.1,83.6c0,12.4,0.4,20.1,1,23.3
		c0.4,1.5,1.1,2.6,2.1,3.2c1.4,0.8,6.9,1.5,16.5,2.3v10.8c-10.1-0.5-20.1-0.8-30-0.8c-8.1,0-15.6,0.3-22.5,0.8l-1.2-2.4
		c0.4-4.4,0.7-11.3,1-20.8c-8.2,6.6-16.1,13.9-23.8,21.8c-6.3,2.7-12.4,4.1-18.5,4.1c-8.1,0-15.2-1.6-21.2-4.9
		c-6-3.3-10.4-7.5-13.3-12.8c-2.9-5.3-4.3-12.7-4.3-22.2l0.3-14.4c0.3-8.9,0.4-16.1,0.4-21.7c0-15.7-0.3-25.1-0.9-28.2
		c-0.4-2-1.4-3.4-2.8-4.3C1008.7,414.8,1003.2,414.3,993.7,414.1"/>
	<path class="st0" d="M1258,440.3h-10.8c-0.6-10.5-1.4-16.5-2.3-18.1c-1.1-2.5-3.7-4.7-7.8-6.8c-4-2-9.1-3-15.2-3
		c-9.4,0-16.2,2.7-20.5,8c-4.3,5.3-6.4,15-6.4,28.8c0,17.6,4,31.2,12,40.8c8,9.6,18.3,14.4,30.9,14.4c4.6,0,8.8-0.4,12.6-1.2
		c3.8-0.8,7.3-1.9,10.5-3.4l2.2,2.9c-1.9,4.2-3.7,8.5-5.4,12.7c-5.8,2.9-11.8,5.1-17.8,6.5c-6,1.4-12.1,2.2-18.3,2.2
		c-19.2,0-34.2-5.3-44.9-15.9c-10.7-10.6-16.1-25.7-16.1-45.3c0-7.2,0.7-13.8,2.1-19.6c1.4-5.9,3.3-10.8,5.8-14.9
		c2.4-4.1,5.1-7.4,8-10c1.8-1.4,9.3-6.3,22.7-14.7c7.8-4.9,13.5-8,17.1-9.1c3.6-1.1,8.3-1.7,14.3-1.7c5.3,0,10.4,0.4,15.5,1.2
		c5,0.8,9.9,2,14.7,3.6l2.3,2.4C1260.2,414.5,1258.4,428,1258,440.3"/>
	<path class="st0" d="M1403.5,510.5v10.8l-10.2-0.4c-5.4-0.3-10.8-0.4-16.2-0.4c-8.3,0-16.2,0.3-23.6,0.8l-1.3-1.4l1.3-18.1
		l-27.6,20.6c-4.9,1.1-9.3,1.7-13.1,1.7c-9.3,0-16.5-2.8-21.6-8.3c-5.1-5.6-7.7-13.7-7.7-24.3c0-13.1,3.5-22.4,10.4-27.8
		c9-7.1,28.8-13.4,59.5-18.9c-0.2-10.4-2-18-5.4-22.7c-4.8-6.5-12.3-9.7-22.4-9.7c-2.4,0-4.8,0.3-7.3,0.9c-2.5,0.6-5,1.5-7.6,2.7
		l-5.9,14.2l-9.1-2.3l0.3-5.9l-0.1-5.8l-0.1-5.3c13.5-8.4,23.2-13.6,29.1-15.7c4.3-1.6,10.3-2.4,18-2.4c10.4,0,18.9,1.6,25.4,4.7
		c6.5,3.1,11.3,7.4,14.3,12.8c3,5.4,4.5,13.2,4.5,23.6c0,4.3-0.2,12.1-0.5,23.2c-0.4,11.5-0.5,20.7-0.5,27.7c0,11,0.3,17.8,0.9,20.1
		c0.4,1.4,1.2,2.5,2.6,3.3C1390.8,508.9,1395.5,509.7,1403.5,510.5 M1353.5,456.1c-15.5,3.4-25.5,7-30.2,10.9c-4.7,3.9-7,9.2-7,15.9
		c0,5.4,1.5,9.6,4.5,12.7c3,3.1,6.8,4.6,11.3,4.6c6.9,0,14-3.9,21.3-11.8V456.1z"/>
	<path class="st0" d="M1412.5,415l17.6-11.5c-0.2-15.6-0.6-29.3-1.3-41c12-3.7,23.4-8.2,34.1-13.5l4,3c-1.9,12.8-3.3,29.9-4,51.4
		c4.1,0.7,8.1,1.1,12,1.1c9,0,17.1-0.6,24.2-1.9l1.2,0.8l-1.2,4.7c-1.3,4.9-2.3,9.5-2.9,13.6c-10.3-0.7-17.9-1.1-22.7-1.1
		c-3.6,0-7.1,0.2-10.6,0.5c-0.2,8.9-0.3,16.8-0.3,23.6c0,29.7,0.9,46.5,2.6,50.6c1.8,4.1,5.9,6.1,12.6,6.1c1.9,0,4-0.2,6.3-0.7
		c2.3-0.4,4.6-1.1,7.2-1.9l2.3,5c-5.3,5.9-10.4,12-15.5,18.4c-3.3,0.5-6.3,0.9-9,1.2c-2.7,0.3-5.2,0.4-7.5,0.4
		c-7.4,0-13.6-1.3-18.6-3.8c-5-2.6-8.6-5.9-10.8-9.9c-2.3-4-3.4-10.1-3.4-18.1c0-4.2,0.2-15.3,0.7-33.4c0.4-15.8,0.7-28.3,0.7-37.4
		l-6.7-0.3c-2.8,0-6.4,0.3-10.8,0.8V415z"/>
	<path class="st0" d="M1507.9,521.3v-10.8c10-0.4,15.7-1,17.3-1.9c1.5-0.9,2.5-3.4,3-7.4c0.7-5.6,1.1-17.8,1.1-36.8
		c0-8.2-0.1-15.8-0.4-22.8l-0.4-15.5c0-5.1-0.6-8.3-1.6-9.5c-1.1-1.2-4.1-1.9-8.9-2.1l-9.9-0.4v-10.2c21.2-1.6,38.7-5.4,52.5-11.4
		l3.3,2.6c-1.3,16.9-2,41.4-2,73.7c0,18.6,0.3,29.9,0.9,33.8c0.4,2.7,1.2,4.5,2.4,5.3c1.2,0.8,6.9,1.6,17.3,2.4v10.8
		c-15.9-0.5-28.2-0.8-36.9-0.8C1540.8,520.5,1528.3,520.8,1507.9,521.3 M1544.7,329.5c5.6,0,10.5,2,14.5,6c4,4,6,8.9,6,14.6
		c0,5.6-2,10.5-6,14.5c-4,4-8.9,6-14.6,6c-5.6,0-10.5-2-14.5-6c-4-4-6-8.8-6-14.5c0-5.7,2-10.6,6-14.6
		C1534.1,331.5,1538.9,329.5,1544.7,329.5"/>
	<path class="st0" d="M1600.6,458.4c0-20.9,4.9-36.6,14.7-47.1c11.7-12.5,28.6-18.7,50.8-18.7c22,0,38.1,5,48.3,14.9
		c10.1,10,15.2,25.7,15.2,47.2c0,22.1-5.8,39.2-17.5,51.2c-11.7,12-27.9,18-48.7,18c-20.4,0-36-5.6-46.7-16.8
		C1605.9,496.1,1600.6,479.8,1600.6,458.4 M1637.2,449.4c0,23.5,3,40.3,9,50.2c4.7,7.7,11.7,11.5,21,11.5c8.2,0,14.5-3.3,19-9.8
		s6.7-18.4,6.7-35.7c0-23.7-2.7-40.1-8.2-49.1c-4.5-7.2-11.5-10.9-21-10.9c-8.2,0-14.7,3.3-19.4,10
		C1639.6,422.2,1637.2,433.5,1637.2,449.4"/>
	<path class="st0" d="M1747.9,521.3v-10.8c9.6-0.5,15-1.3,16.3-2.3c1.2-1,2-3.3,2.3-6.8c0.5-8.9,0.8-24.6,0.8-47.1
		c0-11.1-0.2-20.7-0.5-28.7c-0.2-4.9-0.5-7.8-1-8.7c-0.4-0.7-1.1-1.2-2.1-1.6c-1-0.4-6.2-0.7-15.6-0.9v-10.2c4.8,0,12.2-1,22.3-3.1
		c10.1-2.1,18.6-4.4,25.5-7.1l3.6-1.2c1.2,0,1.9,1,1.9,3l-0.1,1.2c-0.3,2.5-0.4,8.8-0.4,19l20.5-17.2c2.6-2.2,5.2-3.7,7.9-4.5
		c3.9-1.1,8.6-1.6,14.1-1.6c9.3,0,17,1.6,22.9,4.8c5.9,3.2,10.3,7.7,13.1,13.4c2.8,5.7,4.2,14.5,4.2,26.6c0,5.3-0.1,11.4-0.4,18.4
		c-0.4,14.3-0.7,26.7-0.7,37.1c0,5.9,0.5,10,1.5,12.3c0.7,1.6,1.7,2.6,3,3.2c1.3,0.5,6.1,1.2,14.5,2v10.8l-16.3-0.5l-10.4-0.3
		l-27.2,0.8l-1.5-1.7c2.3-16.8,3.4-34,3.4-51.6c0-22.4-1.4-36.2-4.1-41.4c-3.5-6.7-10-10.1-19.3-10.1c-6,0-11.2,1.5-15.6,4.6
		c-4.4,3.1-7.3,6.3-8.6,9.8c-0.6,1.4-0.9,5.9-0.9,13.4c0,32,0.1,50.3,0.4,55s1,7.5,2.3,8.5c1.6,1.3,7.5,2.3,17.7,2.8v10.8
		c-15.3-0.5-28.3-0.8-38.9-0.8C1775.8,520.5,1764.4,520.8,1747.9,521.3"/>
</g>
</svg>
